<svg version="1.1" xmlns="http://www.w3.org/2000/svg" xmlns:xlink="http://www.w3.org/1999/xlink" width="616" height="276"><defs><clipPath id="XWbQcJnHWRVu"><path fill="none" stroke="none" d=" M 0 0 L 616 0 L 616 276 L 0 276 L 0 0 Z"/></clipPath></defs><g transform="scale(1,1)" clip-path="url(#XWbQcJnHWRVu)"><g><path fill="none" stroke="rgb(224,224,224)" paint-order="fill stroke markers" d=" M 6.83095416979711 231.7002253944402 L 232.22539444027015 6.305785123966956" stroke-opacity="1" stroke-linecap="round" stroke-linejoin="round" stroke-miterlimit="10" stroke-width="1.5"/><path fill="none" stroke="rgb(224,224,224)" paint-order="fill stroke markers" d=" M 81.96243425995479 231.7002253944402 L 232.22539444027015 81.4372652141247" stroke-opacity="1" stroke-linecap="round" stroke-linejoin="round" stroke-miterlimit="10" stroke-width="1.5"/><path fill="none" stroke="rgb(224,224,224)" paint-order="fill stroke markers" d=" M 157.09391435011247 231.7002253944402 L 232.22539444027015 156.56874530428246" stroke-opacity="1" stroke-linecap="round" stroke-linejoin="round" stroke-miterlimit="10" stroke-width="1.5"/><path fill="none" stroke="rgb(224,224,224)" paint-order="fill stroke markers" d=" M 232.22539444027015 231.7002253944402 L 232.22539444027015 231.7002253944402" stroke-opacity="1" stroke-linecap="round" stroke-linejoin="round" stroke-miterlimit="10" stroke-width="1.5"/><path fill="none" stroke="rgb(224,224,224)" paint-order="fill stroke markers" d=" M 6.83095416979711 231.7002253944402 L 232.22539444027015 6.305785123966956" stroke-opacity="1" stroke-linecap="round" stroke-linejoin="round" stroke-miterlimit="10" stroke-width="1.5"/><path fill="none" stroke="rgb(224,224,224)" paint-order="fill stroke markers" d=" M 6.83095416979711 231.7002253944402 L 6.83095416979711 231.7002253944402" stroke-opacity="1" stroke-linecap="round" stroke-linejoin="round" stroke-miterlimit="10" stroke-width="1.5"/><path fill="none" stroke="rgb(224,224,224)" paint-order="fill stroke markers" d=" M 232.22539444027015 6.305785123966956 L 232.22539444027015 6.305785123966956" stroke-opacity="1" stroke-linecap="round" stroke-linejoin="round" stroke-miterlimit="10" stroke-width="1.5"/><path fill="none" stroke="rgb(224,224,224)" paint-order="fill stroke markers" d=" M 232.22539444027015 6.305785123966956 L 6.83095416979711 231.7002253944402" stroke-opacity="1" stroke-linecap="round" stroke-linejoin="round" stroke-miterlimit="10" stroke-width="1.5"/><path fill="none" stroke="rgb(224,224,224)" paint-order="fill stroke markers" d=" M 6.83095416979711 6.305785123966956 L 6.83095416979711 6.305785123966956" stroke-opacity="1" stroke-linecap="round" stroke-linejoin="round" stroke-miterlimit="10" stroke-width="1.5"/><path fill="none" stroke="rgb(224,224,224)" paint-order="fill stroke markers" d=" M 81.96243425995479 6.305785123966956 L 6.83095416979711 81.4372652141247" stroke-opacity="1" stroke-linecap="round" stroke-linejoin="round" stroke-miterlimit="10" stroke-width="1.5"/><path fill="none" stroke="rgb(224,224,224)" paint-order="fill stroke markers" d=" M 157.09391435011247 6.305785123966956 L 6.83095416979711 156.56874530428246" stroke-opacity="1" stroke-linecap="round" stroke-linejoin="round" stroke-miterlimit="10" stroke-width="1.5"/><path fill="none" stroke="rgb(224,224,224)" paint-order="fill stroke markers" d=" M 232.22539444027015 6.305785123966956 L 6.83095416979711 231.7002253944402" stroke-opacity="1" stroke-linecap="round" stroke-linejoin="round" stroke-miterlimit="10" stroke-width="1.5"/><path fill="none" stroke="rgb(224,224,224)" paint-order="fill stroke markers" d=" M 232.22539444027015 231.7002253944402 L 6.83095416979711 231.7002253944402" stroke-opacity="1" stroke-linecap="round" stroke-linejoin="round" stroke-miterlimit="10" stroke-width="1.5"/><path fill="none" stroke="rgb(224,224,224)" paint-order="fill stroke markers" d=" M 232.22539444027015 194.13448534936134 L 6.83095416979711 194.13448534936134" stroke-opacity="1" stroke-linecap="round" stroke-linejoin="round" stroke-miterlimit="10" stroke-width="1.5"/><path fill="none" stroke="rgb(224,224,224)" paint-order="fill stroke markers" d=" M 232.22539444027015 156.56874530428246 L 6.83095416979711 156.56874530428246" stroke-opacity="1" stroke-linecap="round" stroke-linejoin="round" stroke-miterlimit="10" stroke-width="1.5"/><path fill="none" stroke="rgb(224,224,224)" paint-order="fill stroke markers" d=" M 232.22539444027015 119.00300525920358 L 6.83095416979711 119.00300525920358" stroke-opacity="1" stroke-linecap="round" stroke-linejoin="round" stroke-miterlimit="10" stroke-width="1.5"/><path fill="none" stroke="rgb(224,224,224)" paint-order="fill stroke markers" d=" M 232.22539444027015 81.4372652141247 L 6.83095416979711 81.4372652141247" stroke-opacity="1" stroke-linecap="round" stroke-linejoin="round" stroke-miterlimit="10" stroke-width="1.5"/><path fill="none" stroke="rgb(224,224,224)" paint-order="fill stroke markers" d=" M 232.22539444027015 43.871525169045825 L 6.83095416979711 43.871525169045825" stroke-opacity="1" stroke-linecap="round" stroke-linejoin="round" stroke-miterlimit="10" stroke-width="1.5"/><path fill="none" stroke="rgb(224,224,224)" paint-order="fill stroke markers" d=" M 232.22539444027015 6.305785123966956 L 6.83095416979711 6.305785123966956" stroke-opacity="1" stroke-linecap="round" stroke-linejoin="round" stroke-miterlimit="10" stroke-width="1.5"/><path fill="none" stroke="rgb(224,224,224)" paint-order="fill stroke markers" d=" M 607.8827948910586 231.7002253944402 L 607.8827948910586 231.7002253944402" stroke-opacity="1" stroke-linecap="round" stroke-linejoin="round" stroke-miterlimit="10" stroke-width="1.5"/><path fill="none" stroke="rgb(224,224,224)" paint-order="fill stroke markers" d=" M 607.8827948910586 231.7002253944402 L 382.48835462058554 6.305785123966956" stroke-opacity="1" stroke-linecap="round" stroke-linejoin="round" stroke-miterlimit="10" stroke-width="1.5"/><path fill="none" stroke="rgb(224,224,224)" paint-order="fill stroke markers" d=" M 382.48835462058554 231.7002253944402 L 382.48835462058554 231.7002253944402" stroke-opacity="1" stroke-linecap="round" stroke-linejoin="round" stroke-miterlimit="10" stroke-width="1.5"/><path fill="none" stroke="rgb(224,224,224)" paint-order="fill stroke markers" d=" M 457.6198347107432 231.7002253944402 L 382.48835462058554 156.56874530428246" stroke-opacity="1" stroke-linecap="round" stroke-linejoin="round" stroke-miterlimit="10" stroke-width="1.5"/><path fill="none" stroke="rgb(224,224,224)" paint-order="fill stroke markers" d=" M 532.7513148009009 231.7002253944402 L 382.48835462058554 81.4372652141247" stroke-opacity="1" stroke-linecap="round" stroke-linejoin="round" stroke-miterlimit="10" stroke-width="1.5"/><path fill="none" stroke="rgb(224,224,224)" paint-order="fill stroke markers" d=" M 607.8827948910586 231.7002253944402 L 382.48835462058554 6.305785123966956" stroke-opacity="1" stroke-linecap="round" stroke-linejoin="round" stroke-miterlimit="10" stroke-width="1.5"/><path fill="none" stroke="rgb(224,224,224)" paint-order="fill stroke markers" d=" M 607.8827948910586 231.7002253944402 L 382.48835462058554 6.305785123966956" stroke-opacity="1" stroke-linecap="round" stroke-linejoin="round" stroke-miterlimit="10" stroke-width="1.5"/><path fill="none" stroke="rgb(224,224,224)" paint-order="fill stroke markers" d=" M 607.8827948910586 156.56874530428246 L 457.6198347107432 6.305785123966956" stroke-opacity="1" stroke-linecap="round" stroke-linejoin="round" stroke-miterlimit="10" stroke-width="1.5"/><path fill="none" stroke="rgb(224,224,224)" paint-order="fill stroke markers" d=" M 607.8827948910586 81.4372652141247 L 532.7513148009009 6.305785123966956" stroke-opacity="1" stroke-linecap="round" stroke-linejoin="round" stroke-miterlimit="10" stroke-width="1.5"/><path fill="none" stroke="rgb(224,224,224)" paint-order="fill stroke markers" d=" M 607.8827948910586 6.305785123966956 L 607.8827948910586 6.305785123966956" stroke-opacity="1" stroke-linecap="round" stroke-linejoin="round" stroke-miterlimit="10" stroke-width="1.5"/><path fill="none" stroke="rgb(224,224,224)" paint-order="fill stroke markers" d=" M 607.8827948910586 231.7002253944402 L 382.48835462058554 6.305785123966956" stroke-opacity="1" stroke-linecap="round" stroke-linejoin="round" stroke-miterlimit="10" stroke-width="1.5"/><path fill="none" stroke="rgb(224,224,224)" paint-order="fill stroke markers" d=" M 382.48835462058554 6.305785123966956 L 382.48835462058554 6.305785123966956" stroke-opacity="1" stroke-linecap="round" stroke-linejoin="round" stroke-miterlimit="10" stroke-width="1.5"/><path fill="none" stroke="rgb(224,224,224)" paint-order="fill stroke markers" d=" M 607.8827948910586 231.7002253944402 L 607.8827948910586 231.7002253944402" stroke-opacity="1" stroke-linecap="round" stroke-linejoin="round" stroke-miterlimit="10" stroke-width="1.5"/><path fill="none" stroke="rgb(224,224,224)" paint-order="fill stroke markers" d=" M 532.7513148009009 231.7002253944402 L 607.8827948910586 156.56874530428246" stroke-opacity="1" stroke-linecap="round" stroke-linejoin="round" stroke-miterlimit="10" stroke-width="1.5"/><path fill="none" stroke="rgb(224,224,224)" paint-order="fill stroke markers" d=" M 457.6198347107432 231.7002253944402 L 607.8827948910586 81.4372652141247" stroke-opacity="1" stroke-linecap="round" stroke-linejoin="round" stroke-miterlimit="10" stroke-width="1.5"/><path fill="none" stroke="rgb(224,224,224)" paint-order="fill stroke markers" d=" M 382.48835462058554 231.7002253944402 L 607.8827948910586 6.305785123966956" stroke-opacity="1" stroke-linecap="round" stroke-linejoin="round" stroke-miterlimit="10" stroke-width="1.5"/><path fill="none" stroke="rgb(224,224,224)" paint-order="fill stroke markers" d=" M 382.48835462058554 231.7002253944402 L 607.8827948910586 6.305785123966956" stroke-opacity="1" stroke-linecap="round" stroke-linejoin="round" stroke-miterlimit="10" stroke-width="1.5"/><path fill="none" stroke="rgb(224,224,224)" paint-order="fill stroke markers" d=" M 382.48835462058554 231.7002253944402 L 382.48835462058554 231.7002253944402" stroke-opacity="1" stroke-linecap="round" stroke-linejoin="round" stroke-miterlimit="10" stroke-width="1.5"/><path fill="none" stroke="rgb(224,224,224)" paint-order="fill stroke markers" d=" M 607.8827948910586 6.305785123966956 L 607.8827948910586 6.305785123966956" stroke-opacity="1" stroke-linecap="round" stroke-linejoin="round" stroke-miterlimit="10" stroke-width="1.5"/><path fill="none" stroke="rgb(224,224,224)" paint-order="fill stroke markers" d=" M 607.8827948910586 6.305785123966956 L 382.48835462058554 231.7002253944402" stroke-opacity="1" stroke-linecap="round" stroke-linejoin="round" stroke-miterlimit="10" stroke-width="1.5"/><path fill="none" stroke="rgb(224,224,224)" paint-order="fill stroke markers" d=" M 607.8827948910586 6.305785123966956 L 382.48835462058554 231.7002253944402" stroke-opacity="1" stroke-linecap="round" stroke-linejoin="round" stroke-miterlimit="10" stroke-width="1.5"/><path fill="none" stroke="rgb(224,224,224)" paint-order="fill stroke markers" d=" M 532.7513148009009 6.305785123966956 L 382.48835462058554 156.56874530428246" stroke-opacity="1" stroke-linecap="round" stroke-linejoin="round" stroke-miterlimit="10" stroke-width="1.5"/><path fill="none" stroke="rgb(224,224,224)" paint-order="fill stroke markers" d=" M 457.6198347107432 6.305785123966956 L 382.48835462058554 81.4372652141247" stroke-opacity="1" stroke-linecap="round" stroke-linejoin="round" stroke-miterlimit="10" stroke-width="1.5"/><path fill="none" stroke="rgb(224,224,224)" paint-order="fill stroke markers" d=" M 382.48835462058554 6.305785123966956 L 382.48835462058554 6.305785123966956" stroke-opacity="1" stroke-linecap="round" stroke-linejoin="round" stroke-miterlimit="10" stroke-width="1.5"/><path fill="rgb(102,0,204)" stroke="none" paint-order="stroke fill markers" fill-rule="evenodd" d=" M 6.83095416979711 231.7002253944402 L 232.22539444027015 231.7002253944402 L 232.22539444027015 6.305785123966956 L 6.83095416979711 6.305785123966956 Z" fill-opacity="0.09803921568627451"/><path fill="rgb(0,153,255)" stroke="none" paint-order="stroke fill markers" fill-rule="evenodd" d=" M 382.48835462058554 231.7002253944402 L 607.8827948910586 231.7002253944402 L 607.8827948910586 6.305785123966956 L 382.48835462058554 6.305785123966956 Z" fill-opacity="0.09803921568627451"/><path fill="none" stroke="rgb(102,0,204)" paint-order="fill stroke markers" d=" M 6.83095416979711 231.7002253944402 L 232.22539444027015 231.7002253944402" stroke-opacity="0.6980392156862745" stroke-linecap="round" stroke-linejoin="round" stroke-miterlimit="10" stroke-width="1.5"/><path fill="none" stroke="rgb(102,0,204)" paint-order="fill stroke markers" d=" M 232.22539444027015 231.7002253944402 L 232.22539444027015 6.305785123966956" stroke-opacity="0.6980392156862745" stroke-linecap="round" stroke-linejoin="round" stroke-miterlimit="10" stroke-width="1.5"/><path fill="none" stroke="rgb(102,0,204)" paint-order="fill stroke markers" d=" M 232.22539444027015 6.305785123966956 L 6.83095416979711 6.305785123966956" stroke-opacity="0.6980392156862745" stroke-linecap="round" stroke-linejoin="round" stroke-miterlimit="10" stroke-width="1.5"/><path fill="none" stroke="rgb(102,0,204)" paint-order="fill stroke markers" d=" M 6.83095416979711 6.305785123966956 L 6.83095416979711 231.7002253944402" stroke-opacity="0.6980392156862745" stroke-linecap="round" stroke-linejoin="round" stroke-miterlimit="10" stroke-width="1.5"/><path fill="none" stroke="rgb(0,153,255)" paint-order="fill stroke markers" d=" M 382.48835462058554 231.7002253944402 L 607.8827948910586 231.7002253944402" stroke-opacity="0.6980392156862745" stroke-linecap="round" stroke-linejoin="round" stroke-miterlimit="10" stroke-width="1.5"/><path fill="none" stroke="rgb(0,153,255)" paint-order="fill stroke markers" d=" M 607.8827948910586 231.7002253944402 L 607.8827948910586 6.305785123966956" stroke-opacity="0.6980392156862745" stroke-linecap="round" stroke-linejoin="round" stroke-miterlimit="10" stroke-width="1.5"/><path fill="none" stroke="rgb(0,153,255)" paint-order="fill stroke markers" d=" M 607.8827948910586 6.305785123966956 L 382.48835462058554 6.305785123966956" stroke-opacity="0.6980392156862745" stroke-linecap="round" stroke-linejoin="round" stroke-miterlimit="10" stroke-width="1.5"/><path fill="none" stroke="rgb(0,153,255)" paint-order="fill stroke markers" d=" M 382.48835462058554 6.305785123966956 L 382.48835462058554 231.7002253944402" stroke-opacity="0.6980392156862745" stroke-linecap="round" stroke-linejoin="round" stroke-miterlimit="10" stroke-width="1.5"/><path fill="none" stroke="rgb(0,0,0)" paint-order="fill stroke markers" d=" M 119.52817430503363 119.00300525920358 L 177.6596543951913 119.00300525920358" stroke-opacity="0.6980392156862745" stroke-linecap="round" stroke-linejoin="round" stroke-miterlimit="10" stroke-width="2.5"/><path fill="rgb(0,0,0)" stroke="none" paint-order="stroke fill markers" fill-rule="evenodd" d=" M 194.6596543951913 119.00300525920358 L 177.6596543951913 123.25300525920358 L 177.6596543951913 114.75300525920358 Z" fill-opacity="0.6980392156862745"/><g transform="scale(27,27)"><g transform="translate(4.814814814814815,5.222222777777778)"><path fill="rgb(0,0,0)" stroke="none" paint-order="stroke fill markers" d=" M 0.431 -0.11 L 0.47600000000000003 -0.29 Q 0.487 -0.331 0.487 -0.357 Q 0.487 -0.41600000000000004 0.437 -0.41600000000000004 Q 0.384 -0.41600000000000004 0.334 -0.377 Q 0.312 -0.359 0.2925 -0.3325 Q 0.273 -0.306 0.272 -0.299 Q 0.271 -0.297 0.257 -0.241 Q 0.243 -0.185 0.241 -0.18 Q 0.227 -0.12 0.213 -0.068 Q 0.209 -0.053 0.20550000000000002 -0.043000000000000003 Q 0.202 -0.033 0.1945 -0.0195 Q 0.187 -0.006 0.17350000000000002 0.001 Q 0.16 0.008 0.14200000000000002 0.008 Q 0.12 0.008 0.1075 -0.0055 Q 0.095 -0.019 0.095 -0.036000000000000004 Q 0.095 -0.039 0.10300000000000001 -0.076 L 0.139 -0.216 Q 0.14400000000000002 -0.23800000000000002 0.161 -0.306 Q 0.17500000000000002 -0.362 0.17500000000000002 -0.379 Q 0.17500000000000002 -0.41600000000000004 0.152 -0.41600000000000004 Q 0.11 -0.41600000000000004 0.084 -0.316 Q 0.077 -0.28800000000000003 0.076 -0.28700000000000003 Q 0.07100000000000001 -0.28200000000000003 0.056 -0.28200000000000003 Q 0.032 -0.28200000000000003 0.032 -0.296 Q 0.032 -0.304 0.043000000000000003 -0.3365 Q 0.054 -0.369 0.07 -0.395 Q 0.105 -0.452 0.157 -0.452 Q 0.2 -0.452 0.23500000000000001 -0.432 Q 0.27 -0.41200000000000003 0.28 -0.376 Q 0.35100000000000003 -0.452 0.445 -0.452 Q 0.506 -0.452 0.542 -0.431 Q 0.58 -0.41000000000000003 0.59 -0.366 Q 0.665 -0.452 0.764 -0.452 Q 0.8280000000000001 -0.452 0.8705 -0.4255 Q 0.913 -0.399 0.913 -0.336 Q 0.913 -0.281 0.851 -0.122 Q 0.8310000000000001 -0.07200000000000001 0.8310000000000001 -0.049 Q 0.8310000000000001 -0.039 0.834 -0.034 Q 0.837 -0.029 0.84 -0.0285 Q 0.843 -0.028 0.848 -0.028 Q 0.857 -0.028 0.867 -0.032 Q 0.877 -0.036000000000000004 0.8925000000000001 -0.0465 Q 0.908 -0.057 0.9235 -0.0835 Q 0.9390000000000001 -0.11 0.9510000000000001 -0.149 Q 0.9550000000000001 -0.162 0.974 -0.162 Q 0.998 -0.162 0.998 -0.148 Q 0.998 -0.138 0.988 -0.1145 Q 0.978 -0.091 0.96 -0.0625 Q 0.9420000000000001 -0.034 0.9105 -0.013000000000000001 Q 0.879 0.008 0.842 0.008 Q 0.797 0.008 0.763 -0.0165 Q 0.729 -0.041 0.729 -0.082 Q 0.729 -0.099 0.743 -0.133 Q 0.806 -0.299 0.806 -0.357 Q 0.806 -0.41600000000000004 0.756 -0.41600000000000004 Q 0.676 -0.41600000000000004 0.613 -0.334 Q 0.591 -0.304 0.587 -0.28600000000000003 Q 0.529 -0.048 0.524 -0.035 Q 0.505 0.008 0.461 0.008 Q 0.439 0.008 0.4265 -0.0055 Q 0.41400000000000003 -0.019 0.41400000000000003 -0.036000000000000004 Q 0.41400000000000003 -0.039 0.431 -0.11 Z"/></g><g transform="translate(5.8472188148148145,5.372222777777778) scale(0.7,0.7)"><path fill="rgb(0,0,0)" stroke="none" paint-order="stroke fill markers" d=" M 0.517 -0.222 L 0.486 0 L 0.057 0 L 0.057 -0.018000000000000002 Q 0.057 -0.034 0.059000000000000004 -0.0385 Q 0.061 -0.043000000000000003 0.07 -0.052000000000000005 L 0.271 -0.257 Q 0.379 -0.367 0.379 -0.465 Q 0.379 -0.525 0.34400000000000003 -0.5665 Q 0.309 -0.608 0.247 -0.608 Q 0.186 -0.608 0.14400000000000002 -0.5730000000000001 Q 0.155 -0.5700000000000001 0.166 -0.5645 Q 0.177 -0.559 0.189 -0.542 Q 0.201 -0.525 0.201 -0.501 Q 0.201 -0.466 0.1785 -0.4475 Q 0.156 -0.429 0.129 -0.429 Q 0.10400000000000001 -0.429 0.0805 -0.4465 Q 0.057 -0.464 0.057 -0.503 Q 0.057 -0.5700000000000001 0.11850000000000001 -0.6125 Q 0.18 -0.655 0.272 -0.655 Q 0.379 -0.655 0.448 -0.603 Q 0.517 -0.551 0.517 -0.466 Q 0.517 -0.431 0.507 -0.404 Q 0.497 -0.377 0.46900000000000003 -0.34750000000000003 Q 0.441 -0.318 0.417 -0.299 Q 0.393 -0.28 0.339 -0.24 Q 0.292 -0.20600000000000002 0.195 -0.125 L 0.342 -0.125 Q 0.433 -0.125 0.444 -0.131 Q 0.457 -0.138 0.47000000000000003 -0.222 L 0.517 -0.222 Z"/></g></g><path fill="none" stroke="rgb(0,0,0)" paint-order="fill stroke markers" d=" M 119.52817430503363 119.00300525920358 L 145.07309906994118 93.45808049429601" stroke-opacity="0.6980392156862745" stroke-linecap="round" stroke-linejoin="round" stroke-miterlimit="10" stroke-width="2.5"/><path fill="rgb(0,0,0)" stroke="none" paint-order="stroke fill markers" fill-rule="evenodd" d=" M 157.09391435011247 81.4372652141247 L 148.078302889984 96.46328431433884 L 142.06789524989836 90.45287667425319 Z" fill-opacity="0.6980392156862745"/><g transform="scale(27,27)"><g transform="translate(3.037037037037037,3.7777783333333335)"><path fill="rgb(0,0,0)" stroke="none" paint-order="stroke fill markers" d=" M 0.431 -0.11 L 0.47600000000000003 -0.29 Q 0.487 -0.331 0.487 -0.357 Q 0.487 -0.41600000000000004 0.437 -0.41600000000000004 Q 0.384 -0.41600000000000004 0.334 -0.377 Q 0.312 -0.359 0.2925 -0.3325 Q 0.273 -0.306 0.272 -0.299 Q 0.271 -0.297 0.257 -0.241 Q 0.243 -0.185 0.241 -0.18 Q 0.227 -0.12 0.213 -0.068 Q 0.209 -0.053 0.20550000000000002 -0.043000000000000003 Q 0.202 -0.033 0.1945 -0.0195 Q 0.187 -0.006 0.17350000000000002 0.001 Q 0.16 0.008 0.14200000000000002 0.008 Q 0.12 0.008 0.1075 -0.0055 Q 0.095 -0.019 0.095 -0.036000000000000004 Q 0.095 -0.039 0.10300000000000001 -0.076 L 0.139 -0.216 Q 0.14400000000000002 -0.23800000000000002 0.161 -0.306 Q 0.17500000000000002 -0.362 0.17500000000000002 -0.379 Q 0.17500000000000002 -0.41600000000000004 0.152 -0.41600000000000004 Q 0.11 -0.41600000000000004 0.084 -0.316 Q 0.077 -0.28800000000000003 0.076 -0.28700000000000003 Q 0.07100000000000001 -0.28200000000000003 0.056 -0.28200000000000003 Q 0.032 -0.28200000000000003 0.032 -0.296 Q 0.032 -0.304 0.043000000000000003 -0.3365 Q 0.054 -0.369 0.07 -0.395 Q 0.105 -0.452 0.157 -0.452 Q 0.2 -0.452 0.23500000000000001 -0.432 Q 0.27 -0.41200000000000003 0.28 -0.376 Q 0.35100000000000003 -0.452 0.445 -0.452 Q 0.506 -0.452 0.542 -0.431 Q 0.58 -0.41000000000000003 0.59 -0.366 Q 0.665 -0.452 0.764 -0.452 Q 0.8280000000000001 -0.452 0.8705 -0.4255 Q 0.913 -0.399 0.913 -0.336 Q 0.913 -0.281 0.851 -0.122 Q 0.8310000000000001 -0.07200000000000001 0.8310000000000001 -0.049 Q 0.8310000000000001 -0.039 0.834 -0.034 Q 0.837 -0.029 0.84 -0.0285 Q 0.843 -0.028 0.848 -0.028 Q 0.857 -0.028 0.867 -0.032 Q 0.877 -0.036000000000000004 0.8925000000000001 -0.0465 Q 0.908 -0.057 0.9235 -0.0835 Q 0.9390000000000001 -0.11 0.9510000000000001 -0.149 Q 0.9550000000000001 -0.162 0.974 -0.162 Q 0.998 -0.162 0.998 -0.148 Q 0.998 -0.138 0.988 -0.1145 Q 0.978 -0.091 0.96 -0.0625 Q 0.9420000000000001 -0.034 0.9105 -0.013000000000000001 Q 0.879 0.008 0.842 0.008 Q 0.797 0.008 0.763 -0.0165 Q 0.729 -0.041 0.729 -0.082 Q 0.729 -0.099 0.743 -0.133 Q 0.806 -0.299 0.806 -0.357 Q 0.806 -0.41600000000000004 0.756 -0.41600000000000004 Q 0.676 -0.41600000000000004 0.613 -0.334 Q 0.591 -0.304 0.587 -0.28600000000000003 Q 0.529 -0.048 0.524 -0.035 Q 0.505 0.008 0.461 0.008 Q 0.439 0.008 0.4265 -0.0055 Q 0.41400000000000003 -0.019 0.41400000000000003 -0.036000000000000004 Q 0.41400000000000003 -0.039 0.431 -0.11 Z"/></g><g transform="translate(4.069441037037038,3.9277783333333334) scale(0.7,0.7)"><path fill="rgb(0,0,0)" stroke="none" paint-order="stroke fill markers" d=" M 0.354 -0.623 L 0.354 -0.047 L 0.494 -0.047 L 0.494 0 Q 0.45 -0.003 0.295 -0.003 Q 0.14 -0.003 0.096 0 L 0.096 -0.047 L 0.23500000000000001 -0.047 L 0.23500000000000001 -0.5640000000000001 Q 0.17300000000000001 -0.544 0.105 -0.544 L 0.085 -0.544 L 0.085 -0.591 L 0.105 -0.591 Q 0.229 -0.591 0.306 -0.648 Q 0.315 -0.655 0.328 -0.655 Q 0.34600000000000003 -0.655 0.35000000000000003 -0.6485 Q 0.354 -0.642 0.354 -0.623 Z"/></g></g><path fill="none" stroke="rgb(0,0,0)" paint-order="fill stroke markers" d=" M 495.185574755822 119.00300525920358 L 520.7304995207296 93.458080494296" stroke-opacity="0.6980392156862745" stroke-linecap="round" stroke-linejoin="round" stroke-miterlimit="10" stroke-width="2.5"/><path fill="rgb(0,0,0)" stroke="none" paint-order="stroke fill markers" fill-rule="evenodd" d=" M 532.7513148009009 81.4372652141247 L 523.7357033407725 96.46328431433882 L 517.7252957006867 90.45287667425318 Z" fill-opacity="0.6980392156862745"/><g transform="scale(27,27)"><g transform="translate(19.296296296296298,4.481482037037037)"><path fill="rgb(0,0,0)" stroke="none" paint-order="stroke fill markers" d=" M 0.28 -0.376 Q 0.35100000000000003 -0.452 0.445 -0.452 Q 0.509 -0.452 0.5515 -0.4255 Q 0.594 -0.399 0.594 -0.336 Q 0.594 -0.281 0.532 -0.122 Q 0.512 -0.07200000000000001 0.512 -0.049 Q 0.512 -0.039 0.515 -0.034 Q 0.518 -0.029 0.521 -0.0285 Q 0.524 -0.028 0.529 -0.028 Q 0.538 -0.028 0.548 -0.032 Q 0.558 -0.036000000000000004 0.5735 -0.0465 Q 0.589 -0.057 0.6045 -0.0835 Q 0.62 -0.11 0.632 -0.149 Q 0.636 -0.162 0.655 -0.162 Q 0.679 -0.162 0.679 -0.148 Q 0.679 -0.138 0.669 -0.1145 Q 0.659 -0.091 0.641 -0.0625 Q 0.623 -0.034 0.5915 -0.013000000000000001 Q 0.56 0.008 0.523 0.008 Q 0.47800000000000004 0.008 0.444 -0.0165 Q 0.41000000000000003 -0.041 0.41000000000000003 -0.082 Q 0.41000000000000003 -0.099 0.424 -0.133 Q 0.487 -0.299 0.487 -0.357 Q 0.487 -0.41600000000000004 0.437 -0.41600000000000004 Q 0.384 -0.41600000000000004 0.334 -0.377 Q 0.312 -0.359 0.2925 -0.3325 Q 0.273 -0.306 0.272 -0.299 Q 0.271 -0.297 0.257 -0.241 Q 0.243 -0.185 0.241 -0.18 Q 0.227 -0.12 0.213 -0.068 Q 0.209 -0.053 0.20550000000000002 -0.043000000000000003 Q 0.202 -0.033 0.1945 -0.0195 Q 0.187 -0.006 0.17350000000000002 0.001 Q 0.16 0.008 0.14200000000000002 0.008 Q 0.12 0.008 0.1075 -0.0055 Q 0.095 -0.019 0.095 -0.036000000000000004 Q 0.095 -0.039 0.10300000000000001 -0.076 L 0.139 -0.216 Q 0.14400000000000002 -0.23800000000000002 0.161 -0.306 Q 0.17500000000000002 -0.362 0.17500000000000002 -0.379 Q 0.17500000000000002 -0.41600000000000004 0.152 -0.41600000000000004 Q 0.11 -0.41600000000000004 0.084 -0.316 Q 0.077 -0.28800000000000003 0.076 -0.28700000000000003 Q 0.07100000000000001 -0.28200000000000003 0.056 -0.28200000000000003 Q 0.032 -0.28200000000000003 0.032 -0.296 Q 0.032 -0.304 0.043000000000000003 -0.3365 Q 0.054 -0.369 0.07 -0.395 Q 0.105 -0.452 0.157 -0.452 Q 0.2 -0.452 0.23500000000000001 -0.432 Q 0.27 -0.41200000000000003 0.28 -0.376 Z"/></g><g transform="translate(20.009257296296298,4.6314820370370375) scale(0.7,0.7)"><path fill="rgb(0,0,0)" stroke="none" paint-order="stroke fill markers" d=" M 0.517 -0.222 L 0.486 0 L 0.057 0 L 0.057 -0.018000000000000002 Q 0.057 -0.034 0.059000000000000004 -0.0385 Q 0.061 -0.043000000000000003 0.07 -0.052000000000000005 L 0.271 -0.257 Q 0.379 -0.367 0.379 -0.465 Q 0.379 -0.525 0.34400000000000003 -0.5665 Q 0.309 -0.608 0.247 -0.608 Q 0.186 -0.608 0.14400000000000002 -0.5730000000000001 Q 0.155 -0.5700000000000001 0.166 -0.5645 Q 0.177 -0.559 0.189 -0.542 Q 0.201 -0.525 0.201 -0.501 Q 0.201 -0.466 0.1785 -0.4475 Q 0.156 -0.429 0.129 -0.429 Q 0.10400000000000001 -0.429 0.0805 -0.4465 Q 0.057 -0.464 0.057 -0.503 Q 0.057 -0.5700000000000001 0.11850000000000001 -0.6125 Q 0.18 -0.655 0.272 -0.655 Q 0.379 -0.655 0.448 -0.603 Q 0.517 -0.551 0.517 -0.466 Q 0.517 -0.431 0.507 -0.404 Q 0.497 -0.377 0.46900000000000003 -0.34750000000000003 Q 0.441 -0.318 0.417 -0.299 Q 0.393 -0.28 0.339 -0.24 Q 0.292 -0.20600000000000002 0.195 -0.125 L 0.342 -0.125 Q 0.433 -0.125 0.444 -0.131 Q 0.457 -0.138 0.47000000000000003 -0.222 L 0.517 -0.222 Z"/></g></g><path fill="none" stroke="rgb(0,0,0)" paint-order="fill stroke markers" d=" M 495.185574755822 119.00300525920358 L 469.6406499909145 93.45808049429601" stroke-opacity="0.6980392156862745" stroke-linecap="round" stroke-linejoin="round" stroke-miterlimit="10" stroke-width="2.5"/><path fill="rgb(0,0,0)" stroke="none" paint-order="stroke fill markers" fill-rule="evenodd" d=" M 457.6198347107432 81.4372652141247 L 472.6458538109573 90.45287667425319 L 466.63544617087166 96.46328431433884 Z" fill-opacity="0.6980392156862745"/><g transform="scale(27,27)"><g transform="translate(16.40740740740741,4.407407962962963)"><path fill="rgb(0,0,0)" stroke="none" paint-order="stroke fill markers" d=" M 0.28 -0.376 Q 0.35100000000000003 -0.452 0.445 -0.452 Q 0.509 -0.452 0.5515 -0.4255 Q 0.594 -0.399 0.594 -0.336 Q 0.594 -0.281 0.532 -0.122 Q 0.512 -0.07200000000000001 0.512 -0.049 Q 0.512 -0.039 0.515 -0.034 Q 0.518 -0.029 0.521 -0.0285 Q 0.524 -0.028 0.529 -0.028 Q 0.538 -0.028 0.548 -0.032 Q 0.558 -0.036000000000000004 0.5735 -0.0465 Q 0.589 -0.057 0.6045 -0.0835 Q 0.62 -0.11 0.632 -0.149 Q 0.636 -0.162 0.655 -0.162 Q 0.679 -0.162 0.679 -0.148 Q 0.679 -0.138 0.669 -0.1145 Q 0.659 -0.091 0.641 -0.0625 Q 0.623 -0.034 0.5915 -0.013000000000000001 Q 0.56 0.008 0.523 0.008 Q 0.47800000000000004 0.008 0.444 -0.0165 Q 0.41000000000000003 -0.041 0.41000000000000003 -0.082 Q 0.41000000000000003 -0.099 0.424 -0.133 Q 0.487 -0.299 0.487 -0.357 Q 0.487 -0.41600000000000004 0.437 -0.41600000000000004 Q 0.384 -0.41600000000000004 0.334 -0.377 Q 0.312 -0.359 0.2925 -0.3325 Q 0.273 -0.306 0.272 -0.299 Q 0.271 -0.297 0.257 -0.241 Q 0.243 -0.185 0.241 -0.18 Q 0.227 -0.12 0.213 -0.068 Q 0.209 -0.053 0.20550000000000002 -0.043000000000000003 Q 0.202 -0.033 0.1945 -0.0195 Q 0.187 -0.006 0.17350000000000002 0.001 Q 0.16 0.008 0.14200000000000002 0.008 Q 0.12 0.008 0.1075 -0.0055 Q 0.095 -0.019 0.095 -0.036000000000000004 Q 0.095 -0.039 0.10300000000000001 -0.076 L 0.139 -0.216 Q 0.14400000000000002 -0.23800000000000002 0.161 -0.306 Q 0.17500000000000002 -0.362 0.17500000000000002 -0.379 Q 0.17500000000000002 -0.41600000000000004 0.152 -0.41600000000000004 Q 0.11 -0.41600000000000004 0.084 -0.316 Q 0.077 -0.28800000000000003 0.076 -0.28700000000000003 Q 0.07100000000000001 -0.28200000000000003 0.056 -0.28200000000000003 Q 0.032 -0.28200000000000003 0.032 -0.296 Q 0.032 -0.304 0.043000000000000003 -0.3365 Q 0.054 -0.369 0.07 -0.395 Q 0.105 -0.452 0.157 -0.452 Q 0.2 -0.452 0.23500000000000001 -0.432 Q 0.27 -0.41200000000000003 0.28 -0.376 Z"/></g><g transform="translate(17.12036840740741,4.557407962962963) scale(0.7,0.7)"><path fill="rgb(0,0,0)" stroke="none" paint-order="stroke fill markers" d=" M 0.354 -0.623 L 0.354 -0.047 L 0.494 -0.047 L 0.494 0 Q 0.45 -0.003 0.295 -0.003 Q 0.14 -0.003 0.096 0 L 0.096 -0.047 L 0.23500000000000001 -0.047 L 0.23500000000000001 -0.5640000000000001 Q 0.17300000000000001 -0.544 0.105 -0.544 L 0.085 -0.544 L 0.085 -0.591 L 0.105 -0.591 Q 0.229 -0.591 0.306 -0.648 Q 0.315 -0.655 0.328 -0.655 Q 0.34600000000000003 -0.655 0.35000000000000003 -0.6485 Q 0.354 -0.642 0.354 -0.623 Z"/></g></g><g transform="scale(27,27)"><g transform="translate(4.111111111111111,9.795650125925926)"><path fill="rgb(0,100,0)" stroke="none" paint-order="stroke fill markers" d=" M 0.268 -0.314 L 0.268 -0.314 L 0.268 -0.092 Q 0.268 -0.051000000000000004 0.28 -0.043000000000000003 Q 0.291 -0.035 0.329 -0.035 Q 0.357 -0.035 0.357 -0.018000000000000002 Q 0.34800000000000003 -0.001 0.324 0 L 0.05 0 Q 0.02 0 0.017 -0.012 Q 0.016 -0.015 0.016 -0.018000000000000002 Q 0.016 -0.035 0.043000000000000003 -0.035 Q 0.09 -0.035 0.099 -0.049 Q 0.10400000000000001 -0.057 0.105 -0.077 L 0.105 -0.092 L 0.105 -0.593 Q 0.105 -0.635 0.092 -0.643 Q 0.081 -0.65 0.043000000000000003 -0.65 Q 0.016 -0.65 0.016 -0.667 Q 0.024 -0.684 0.05 -0.685 L 0.364 -0.685 Q 0.494 -0.685 0.5690000000000001 -0.625 L 0.5700000000000001 -0.624 Q 0.611 -0.59 0.624 -0.541 Q 0.629 -0.521 0.629 -0.498 Q 0.629 -0.369 0.489 -0.333 Q 0.47300000000000003 -0.328 0.454 -0.325 Q 0.495 -0.259 0.578 -0.14100000000000001 Q 0.652 -0.043000000000000003 0.6880000000000001 -0.035 Q 0.7030000000000001 -0.032 0.7030000000000001 -0.018000000000000002 Q 0.6940000000000001 -0.001 0.67 0 L 0.532 0 Q 0.508 0 0.503 -0.007 Q 0.501 -0.009000000000000001 0.499 -0.012 L 0.454 -0.082 L 0.304 -0.314 L 0.268 -0.314 M 0.461 -0.363 L 0.461 -0.363 Q 0.583 -0.385 0.593 -0.47800000000000004 Q 0.594 -0.488 0.594 -0.498 Q 0.594 -0.595 0.482 -0.631 Q 0.468 -0.636 0.454 -0.639 Q 0.492 -0.59 0.492 -0.497 Q 0.492 -0.404 0.461 -0.363 M 0.268 -0.596 L 0.268 -0.34900000000000003 Q 0.385 -0.34900000000000003 0.42 -0.373 Q 0.429 -0.38 0.436 -0.39 Q 0.457 -0.419 0.457 -0.497 Q 0.457 -0.613 0.395 -0.639 Q 0.37 -0.65 0.33 -0.65 Q 0.271 -0.65 0.268 -0.607 L 0.268 -0.596 M 0.132 -0.035 L 0.241 -0.035 Q 0.233 -0.053 0.233 -0.09 L 0.233 -0.599 Q 0.233 -0.634 0.246 -0.65 L 0.132 -0.65 Q 0.14 -0.632 0.14 -0.595 L 0.14 -0.09 Q 0.14 -0.053 0.132 -0.035 M 0.34500000000000003 -0.314 L 0.525 -0.035 L 0.622 -0.035 Q 0.548 -0.109 0.41600000000000004 -0.32 Q 0.386 -0.316 0.364 -0.316 Q 0.359 -0.316 0.34500000000000003 -0.314 Z"/></g><g transform="translate(4.8333351111111105,9.377036725925926) scale(0.7,0.7)"><path fill="rgb(0,100,0)" stroke="none" paint-order="stroke fill markers" d=" M 0.517 -0.222 L 0.486 0 L 0.057 0 L 0.057 -0.018000000000000002 Q 0.057 -0.034 0.059000000000000004 -0.0385 Q 0.061 -0.043000000000000003 0.07 -0.052000000000000005 L 0.271 -0.257 Q 0.379 -0.367 0.379 -0.465 Q 0.379 -0.525 0.34400000000000003 -0.5665 Q 0.309 -0.608 0.247 -0.608 Q 0.186 -0.608 0.14400000000000002 -0.5730000000000001 Q 0.155 -0.5700000000000001 0.166 -0.5645 Q 0.177 -0.559 0.189 -0.542 Q 0.201 -0.525 0.201 -0.501 Q 0.201 -0.466 0.1785 -0.4475 Q 0.156 -0.429 0.129 -0.429 Q 0.10400000000000001 -0.429 0.0805 -0.4465 Q 0.057 -0.464 0.057 -0.503 Q 0.057 -0.5700000000000001 0.11850000000000001 -0.6125 Q 0.18 -0.655 0.272 -0.655 Q 0.379 -0.655 0.448 -0.603 Q 0.517 -0.551 0.517 -0.466 Q 0.517 -0.431 0.507 -0.404 Q 0.497 -0.377 0.46900000000000003 -0.34750000000000003 Q 0.441 -0.318 0.417 -0.299 Q 0.393 -0.28 0.339 -0.24 Q 0.292 -0.20600000000000002 0.195 -0.125 L 0.342 -0.125 Q 0.433 -0.125 0.444 -0.131 Q 0.457 -0.138 0.47000000000000003 -0.222 L 0.517 -0.222 Z"/></g></g><g transform="scale(27,27)"><g transform="translate(17.88888888888889,9.8697242)"><path fill="rgb(0,100,0)" stroke="none" paint-order="stroke fill markers" d=" M 0.268 -0.314 L 0.268 -0.314 L 0.268 -0.092 Q 0.268 -0.051000000000000004 0.28 -0.043000000000000003 Q 0.291 -0.035 0.329 -0.035 Q 0.357 -0.035 0.357 -0.018000000000000002 Q 0.34800000000000003 -0.001 0.324 0 L 0.05 0 Q 0.02 0 0.017 -0.012 Q 0.016 -0.015 0.016 -0.018000000000000002 Q 0.016 -0.035 0.043000000000000003 -0.035 Q 0.09 -0.035 0.099 -0.049 Q 0.10400000000000001 -0.057 0.105 -0.077 L 0.105 -0.092 L 0.105 -0.593 Q 0.105 -0.635 0.092 -0.643 Q 0.081 -0.65 0.043000000000000003 -0.65 Q 0.016 -0.65 0.016 -0.667 Q 0.024 -0.684 0.05 -0.685 L 0.364 -0.685 Q 0.494 -0.685 0.5690000000000001 -0.625 L 0.5700000000000001 -0.624 Q 0.611 -0.59 0.624 -0.541 Q 0.629 -0.521 0.629 -0.498 Q 0.629 -0.369 0.489 -0.333 Q 0.47300000000000003 -0.328 0.454 -0.325 Q 0.495 -0.259 0.578 -0.14100000000000001 Q 0.652 -0.043000000000000003 0.6880000000000001 -0.035 Q 0.7030000000000001 -0.032 0.7030000000000001 -0.018000000000000002 Q 0.6940000000000001 -0.001 0.67 0 L 0.532 0 Q 0.508 0 0.503 -0.007 Q 0.501 -0.009000000000000001 0.499 -0.012 L 0.454 -0.082 L 0.304 -0.314 L 0.268 -0.314 M 0.461 -0.363 L 0.461 -0.363 Q 0.583 -0.385 0.593 -0.47800000000000004 Q 0.594 -0.488 0.594 -0.498 Q 0.594 -0.595 0.482 -0.631 Q 0.468 -0.636 0.454 -0.639 Q 0.492 -0.59 0.492 -0.497 Q 0.492 -0.404 0.461 -0.363 M 0.268 -0.596 L 0.268 -0.34900000000000003 Q 0.385 -0.34900000000000003 0.42 -0.373 Q 0.429 -0.38 0.436 -0.39 Q 0.457 -0.419 0.457 -0.497 Q 0.457 -0.613 0.395 -0.639 Q 0.37 -0.65 0.33 -0.65 Q 0.271 -0.65 0.268 -0.607 L 0.268 -0.596 M 0.132 -0.035 L 0.241 -0.035 Q 0.233 -0.053 0.233 -0.09 L 0.233 -0.599 Q 0.233 -0.634 0.246 -0.65 L 0.132 -0.65 Q 0.14 -0.632 0.14 -0.595 L 0.14 -0.09 Q 0.14 -0.053 0.132 -0.035 M 0.34500000000000003 -0.314 L 0.525 -0.035 L 0.622 -0.035 Q 0.548 -0.109 0.41600000000000004 -0.32 Q 0.386 -0.316 0.364 -0.316 Q 0.359 -0.316 0.34500000000000003 -0.314 Z"/></g><g transform="translate(18.61111288888889,9.4511108) scale(0.7,0.7)"><path fill="rgb(0,100,0)" stroke="none" paint-order="stroke fill markers" d=" M 0.517 -0.222 L 0.486 0 L 0.057 0 L 0.057 -0.018000000000000002 Q 0.057 -0.034 0.059000000000000004 -0.0385 Q 0.061 -0.043000000000000003 0.07 -0.052000000000000005 L 0.271 -0.257 Q 0.379 -0.367 0.379 -0.465 Q 0.379 -0.525 0.34400000000000003 -0.5665 Q 0.309 -0.608 0.247 -0.608 Q 0.186 -0.608 0.14400000000000002 -0.5730000000000001 Q 0.155 -0.5700000000000001 0.166 -0.5645 Q 0.177 -0.559 0.189 -0.542 Q 0.201 -0.525 0.201 -0.501 Q 0.201 -0.466 0.1785 -0.4475 Q 0.156 -0.429 0.129 -0.429 Q 0.10400000000000001 -0.429 0.0805 -0.4465 Q 0.057 -0.464 0.057 -0.503 Q 0.057 -0.5700000000000001 0.11850000000000001 -0.6125 Q 0.18 -0.655 0.272 -0.655 Q 0.379 -0.655 0.448 -0.603 Q 0.517 -0.551 0.517 -0.466 Q 0.517 -0.431 0.507 -0.404 Q 0.497 -0.377 0.46900000000000003 -0.34750000000000003 Q 0.441 -0.318 0.417 -0.299 Q 0.393 -0.28 0.339 -0.24 Q 0.292 -0.20600000000000002 0.195 -0.125 L 0.342 -0.125 Q 0.433 -0.125 0.444 -0.131 Q 0.457 -0.138 0.47000000000000003 -0.222 L 0.517 -0.222 Z"/></g></g><path fill="none" stroke="rgb(0,0,0)" paint-order="fill stroke markers" d=" M 265.99999999999966 117.99999999999997 L 324.1314800901573 117.99999999999997" stroke-opacity="0.6980392156862745" stroke-linecap="round" stroke-linejoin="round" stroke-miterlimit="10" stroke-width="2.5"/><path fill="rgb(0,0,0)" stroke="none" paint-order="stroke fill markers" fill-rule="evenodd" d=" M 341.1314800901573 117.99999999999997 L 324.1314800901573 122.24999999999997 L 324.1314800901573 113.74999999999997 Z" fill-opacity="0.6980392156862745"/><g transform="scale(27,27)"><g transform="translate(10.777777777777779,3.794443111111111)"><path fill="rgb(0,0,0)" stroke="none" paint-order="stroke fill markers" d=" M 0.303 -0.316 L 0.303 -0.316 L 0.241 -0.066 L 0.23800000000000002 -0.049 Q 0.23800000000000002 -0.032 0.28400000000000003 -0.031 L 0.28400000000000003 -0.031 L 0.28400000000000003 -0.031 L 0.303 -0.031 Q 0.329 -0.031 0.331 -0.02 Q 0.331 0 0.311 0 L 0.247 -0.002 L 0.246 -0.002 L 0.184 -0.003 L 0.182 -0.003 L 0.056 0 L 0.055 0 Q 0.04 0 0.04 -0.012 Q 0.04 -0.029 0.056 -0.031 L 0.068 -0.031 Q 0.133 -0.031 0.146 -0.045 Q 0.152 -0.052000000000000005 0.158 -0.073 Q 0.158 -0.074 0.159 -0.078 L 0.293 -0.615 Q 0.297 -0.631 0.297 -0.634 Q 0.297 -0.646 0.281 -0.649 L 0.28 -0.649 L 0.28 -0.649 Q 0.278 -0.65 0.275 -0.65 Q 0.251 -0.652 0.232 -0.652 Q 0.20600000000000002 -0.652 0.20400000000000001 -0.66 Q 0.203 -0.662 0.203 -0.664 Q 0.203 -0.681 0.22 -0.683 L 0.22 -0.683 L 0.233 -0.683 L 0.557 -0.683 Q 0.678 -0.683 0.73 -0.609 Q 0.754 -0.5740000000000001 0.754 -0.532 Q 0.754 -0.451 0.671 -0.385 Q 0.583 -0.316 0.47300000000000003 -0.316 L 0.303 -0.316 M 0.375 -0.614 L 0.307 -0.342 L 0.448 -0.342 Q 0.543 -0.342 0.602 -0.395 Q 0.643 -0.433 0.658 -0.522 L 0.658 -0.523 Q 0.661 -0.542 0.661 -0.556 Q 0.661 -0.652 0.525 -0.652 L 0.429 -0.652 Q 0.393 -0.652 0.385 -0.642 L 0.385 -0.642 L 0.385 -0.641 L 0.384 -0.641 L 0.384 -0.64 Q 0.38 -0.634 0.375 -0.614 Z"/></g></g><path fill="rgb(102,204,255)" stroke="none" paint-order="stroke fill markers" d=" M 123.52817430503363 119.00300525920358 C 123.52817430503363 121.21214425852675 121.7373133043568 123.00300525920358 119.52817430503363 123.00300525920358 C 117.31903530571046 123.00300525920358 115.52817430503363 121.21214425852675 115.52817430503363 119.00300525920358 C 115.52817430503363 116.7938662598804 117.31903530571046 115.00300525920358 119.52817430503363 115.00300525920358 C 121.7373133043568 115.00300525920358 123.52817430503363 116.7938662598804 123.52817430503363 119.00300525920358 Z" fill-opacity="1"/><path fill="none" stroke="rgb(0,0,0)" paint-order="fill stroke markers" d=" M 123.52817430503363 119.00300525920358 C 123.52817430503363 121.21214425852675 121.7373133043568 123.00300525920358 119.52817430503363 123.00300525920358 C 117.31903530571046 123.00300525920358 115.52817430503363 121.21214425852675 115.52817430503363 119.00300525920358 C 115.52817430503363 116.7938662598804 117.31903530571046 115.00300525920358 119.52817430503363 115.00300525920358 C 121.7373133043568 115.00300525920358 123.52817430503363 116.7938662598804 123.52817430503363 119.00300525920358 Z" stroke-opacity="1" stroke-linecap="round" stroke-linejoin="round" stroke-miterlimit="10"/><path fill="rgb(102,204,255)" stroke="none" paint-order="stroke fill markers" d=" M 499.185574755822 119.00300525920358 C 499.185574755822 121.21214425852675 497.3947137551452 123.00300525920358 495.185574755822 123.00300525920358 C 492.97643575649886 123.00300525920358 491.185574755822 121.21214425852675 491.185574755822 119.00300525920358 C 491.185574755822 116.7938662598804 492.97643575649886 115.00300525920358 495.185574755822 115.00300525920358 C 497.3947137551452 115.00300525920358 499.185574755822 116.7938662598804 499.185574755822 119.00300525920358 Z" fill-opacity="1"/><path fill="none" stroke="rgb(0,0,0)" paint-order="fill stroke markers" d=" M 499.185574755822 119.00300525920358 C 499.185574755822 121.21214425852675 497.3947137551452 123.00300525920358 495.185574755822 123.00300525920358 C 492.97643575649886 123.00300525920358 491.185574755822 121.21214425852675 491.185574755822 119.00300525920358 C 491.185574755822 116.7938662598804 492.97643575649886 115.00300525920358 495.185574755822 115.00300525920358 C 497.3947137551452 115.00300525920358 499.185574755822 116.7938662598804 499.185574755822 119.00300525920358 Z" stroke-opacity="1" stroke-linecap="round" stroke-linejoin="round" stroke-miterlimit="10"/></g></g></svg>